<svg id="Layer_1" data-name="Layer 1" xmlns="http://www.w3.org/2000/svg" viewBox="-1.65 72.9 153.18 152.8">
  <defs>
    <style>
      .cls-1 {
        fill: #e3dfd4;
      }

      .cls-1, .cls-2 {
        font-family: RobotoCondensed-Regular, 'Roboto Condensed';
        font-size: 14.85px;
      }

      .cls-2 {
        fill: #9e8c68;
      }
    </style>
  </defs>
  <text class="cls-1" transform="translate(59.04 88.97) rotate(-11.43)"><tspan x="0" y="0">a</tspan></text>
  <text class="cls-1" transform="translate(65.73 87.59) rotate(-5.05)"><tspan x="0" y="0">p</tspan></text>
  <text class="cls-1" transform="translate(72.73 86.96) rotate(1.32)"><tspan x="0" y="0">p</tspan></text>
  <text class="cls-1" transform="translate(79.86 87.19) rotate(6.02)"><tspan x="0" y="0">l</tspan></text>
  <text class="cls-1" transform="translate(83.04 87.47) rotate(10.24)"><tspan x="0" y="0">y</tspan></text>
  <text class="cls-1" transform="translate(88.92 88.58) rotate(14.5)"><tspan x="0" y="0"> </tspan></text>
  <text class="cls-1" transform="translate(92.04 89.29) rotate(19.2)"><tspan x="0" y="0">n</tspan></text>
  <text class="cls-1" transform="translate(98.56 91.54) rotate(25.7)"><tspan x="0" y="0">o</tspan></text>
  <text class="cls-1" transform="translate(105.02 94.55) rotate(33.27)"><tspan x="0" y="0">w</tspan></text>
  <text class="cls-1" transform="translate(112.8 99.82) rotate(39.02)"><tspan x="0" y="0"> </tspan></text>
  <text class="cls-1" transform="translate(115.34 101.88) rotate(42.01)"><tspan x="0" y="0"> </tspan></text>
  <text class="cls-1" transform="translate(117.76 103.97) rotate(46.3)"><tspan x="0" y="0">*</tspan></text>
  <text class="cls-1" transform="translate(122.01 108.48) rotate(50.6)"><tspan x="0" y="0"> </tspan></text>
  <text class="cls-1" transform="translate(124.09 111.01) rotate(53.59)"><tspan x="0" y="0"> </tspan></text>
  <text class="cls-1" transform="translate(126.06 113.53) rotate(58.33)"><tspan x="0" y="0">b</tspan></text>
  <text class="cls-1" transform="translate(129.75 119.51) rotate(64.62)"><tspan x="0" y="0">e</tspan></text>
  <text class="cls-1" transform="translate(132.63 125.55) rotate(70.77)"><tspan x="0" y="0">c</tspan></text>
  <text class="cls-1" transform="translate(134.83 131.75) rotate(77.14)"><tspan x="0" y="0">o</tspan></text>
  <text class="cls-1" transform="translate(136.56 138.63) rotate(85.36)"><tspan x="0" y="0">m</tspan></text>
  <text class="cls-1" transform="translate(137.31 149.44) rotate(93.26)"><tspan x="0" y="0">e</tspan></text>
  <text class="cls-1" transform="translate(136.87 156.16) rotate(97.81)"><tspan x="0" y="0"> </tspan></text>
  <text class="cls-1" transform="translate(136.52 159.34) rotate(102.46)"><tspan x="0" y="0">a</tspan></text>
  <text class="cls-1" transform="translate(134.96 166.07) rotate(107.14)"><tspan x="0" y="0"> </tspan></text>
  <text class="cls-1" transform="translate(134.1 169.13) rotate(111.65)"><tspan x="0" y="0">s</tspan></text>
  <text class="cls-1" transform="translate(131.64 175.2) rotate(116.6)"><tspan x="0" y="0">t</tspan></text>
  <text class="cls-1" transform="translate(129.81 178.96) rotate(121.28)"><tspan x="0" y="0">y</tspan></text>
  <text class="cls-1" transform="translate(126.66 184.06) rotate(125.5)"><tspan x="0" y="0">l</tspan></text>
  <text class="cls-1" transform="translate(124.76 186.72) rotate(128.5)"><tspan x="0" y="0">i</tspan></text>
  <text class="cls-1" transform="translate(122.84 189.26) rotate(132.95)"><tspan x="0" y="0">s</tspan></text>
  <text class="cls-1" transform="translate(118.34 194.03) rotate(137.86)"><tspan x="0" y="0">t</tspan></text>
  <text class="cls-1" transform="translate(115.19 196.87) rotate(141.28)"><tspan x="0" y="0"> </tspan></text>
  <text class="cls-1" transform="translate(112.66 198.9) rotate(144.26)"><tspan x="0" y="0"> </tspan></text>
  <text class="cls-1" transform="translate(110.08 200.84) rotate(148.59)"><tspan x="0" y="0">*</tspan></text>
  <text class="cls-2" transform="translate(104.76 204.03) rotate(152.92)"><tspan x="0" y="0"> </tspan></text>
  <text class="cls-1" transform="translate(101.86 205.51) rotate(155.93)"><tspan x="0" y="0"> </tspan></text>
  <text class="cls-1" transform="translate(98.99 206.89) rotate(160.6)"><tspan x="0" y="0">a</tspan></text>
  <text class="cls-1" transform="translate(92.57 209.17) rotate(167)"><tspan x="0" y="0">p</tspan></text>
  <text class="cls-1" transform="translate(85.7 210.77) rotate(173.5)"><tspan x="0" y="0">p</tspan></text>
  <text class="cls-1" transform="translate(78.64 211.51) rotate(178.19)"><tspan x="0" y="0">l</tspan></text>
  <text class="cls-1" transform="translate(75.42 211.67) rotate(-177.64)"><tspan x="0" y="0">y</tspan></text>
  <text class="cls-1" transform="translate(69.42 211.37) rotate(-173.43)"><tspan x="0" y="0"> </tspan></text>
  <text class="cls-1" transform="translate(66.24 211.09) rotate(-168.75)"><tspan x="0" y="0">n</tspan></text>
  <text class="cls-1" transform="translate(59.48 209.78) rotate(-162.26)"><tspan x="0" y="0">o</tspan></text>
  <text class="cls-1" transform="translate(52.68 207.7) rotate(-154.67)"><tspan x="0" y="0">w</tspan></text>
  <text class="cls-1" transform="translate(44.25 203.55) rotate(-148.89)"><tspan x="0" y="0"> </tspan></text>
  <text class="cls-1" transform="translate(41.44 201.86) rotate(-145.87)"><tspan x="0" y="0"> </tspan></text>
  <text class="cls-1" transform="translate(38.74 200.03) rotate(-142.89)"><tspan x="0" y="0"> </tspan></text>
  <text class="cls-1" transform="translate(36.15 198.15) rotate(-138.59)"><tspan x="0" y="0">*</tspan></text>
  <text class="cls-1" transform="translate(31.52 194) rotate(-134.27)"><tspan x="0" y="0"> </tspan></text>
  <text class="cls-1" transform="translate(29.25 191.68) rotate(-131.31)"><tspan x="0" y="0"> </tspan></text>
  <text class="cls-1" transform="translate(27.09 189.22) rotate(-128.31)"><tspan x="0" y="0"> </tspan></text>
  <text class="cls-1" transform="translate(25.04 186.77) rotate(-123.59)"><tspan x="0" y="0">b</tspan></text>
  <text class="cls-1" transform="translate(21.14 180.92) rotate(-117.3)"><tspan x="0" y="0">e</tspan></text>
  <text class="cls-1" transform="translate(18.07 174.99) rotate(-111.17)"><tspan x="0" y="0">c</tspan></text>
  <text class="cls-1" transform="translate(15.66 168.85) rotate(-104.79)"><tspan x="0" y="0">o</tspan></text>
  <text class="cls-1" transform="translate(13.7 162.03) rotate(-96.54)"><tspan x="0" y="0">m</tspan></text>
  <text class="cls-1" transform="translate(12.59 151.27) rotate(-88.64)"><tspan x="0" y="0">e</tspan></text>
  <text class="cls-1" transform="translate(12.81 144.53) rotate(-84.11)"><tspan x="0" y="0"> </tspan></text>
  <text class="cls-1" transform="translate(13.05 141.35) rotate(-79.47)"><tspan x="0" y="0">a</tspan></text>
  <text class="cls-1" transform="translate(14.38 134.57) rotate(-74.79)"><tspan x="0" y="0"> </tspan></text>
  <text class="cls-1" transform="translate(15.15 131.46) rotate(-70.26)"><tspan x="0" y="0">s</tspan></text>
  <text class="cls-1" transform="translate(17.39 125.32) rotate(-65.32)"><tspan x="0" y="0">t</tspan></text>
  <text class="cls-1" transform="translate(19.11 121.49) rotate(-60.62)"><tspan x="0" y="0">y</tspan></text>
  <text class="cls-1" transform="translate(22.07 116.31) rotate(-56.41)"><tspan x="0" y="0">l</tspan></text>
  <text class="cls-1" transform="translate(23.87 113.59) rotate(-53.42)"><tspan x="0" y="0">i</tspan></text>
  <text class="cls-1" transform="translate(25.74 110.96) rotate(-48.93)"><tspan x="0" y="0">s</tspan></text>
  <text class="cls-1" transform="translate(30.05 106.07) rotate(-44.06)"><tspan x="0" y="0">t</tspan></text>
  <text class="cls-1" transform="translate(33.1 103.14) rotate(-40.64)"><tspan x="0" y="0"> </tspan></text>
  <text class="cls-1" transform="translate(35.58 101) rotate(-37.65)"><tspan x="0" y="0"> </tspan></text>
  <text class="cls-1" transform="translate(38.17 99) rotate(-34.64)"><tspan x="0" y="0"> </tspan></text>
  <text class="cls-1" transform="translate(40.77 97.13) rotate(-30.33)"><tspan x="0" y="0">*</tspan></text>
</svg>